<svg xmlns="http://www.w3.org/2000/svg" width="308.603" height="601.008" viewBox="0 0 308.603 601.008">
  <defs>
    <style>
      .cls-1 {
        fill: rgba(254,141,1,0.6);
      }
    </style>
  </defs>
  <path id="Path_211" data-name="Path 211" class="cls-1" d="M374.6,4026.143c0-55.527,46.411-77.9,54.7-130.945s-46.825-39.366-21.548-81.219,56.6-86.192,122.657-86.192,116.727,44.339,141.59,86.192-42.138,28.178-42.138,81.219,46.282,72.517,42.138,130.945-54.809,48.9-58.714,102.767,34.394,66.3,43.1,112.712,11.558,62.572-8.288,72.931-29.571-23.62-71.095-31.493-48.75-10.774-95,0-63.151,57.185-90,43.1-26.723-47.24-17.4-99.452,54.7-59.257,54.7-109.4S374.6,4081.67,374.6,4026.143Z" transform="translate(-368.929 -3727.787)"/>
</svg>
