<svg xmlns="http://www.w3.org/2000/svg" width="252.87" height="178.307" viewBox="0 0 252.87 178.307">
  <defs>
    <style>
      .cls-1 {
        fill: #fff;
      }

      .cls-2, .cls-3 {
        stroke: none;
      }

      .cls-3 {
        fill: #707070;
      }
    </style>
  </defs>
  <g id="Path_212" data-name="Path 212" class="cls-1" transform="translate(21.527 36.18)">
    <path class="cls-2" d="M 17.69925117492676 141.6266632080078 C 14.46431922912598 141.6266632080078 11.48521900177002 140.9838562011719 8.591818809509277 139.6614990234375 C 5.483252048492432 138.2407989501953 2.544818878173828 136.0729217529297 -0.3913812041282654 133.0339202880859 C -3.661747932434082 129.6490631103516 -6.652581214904785 125.0222244262695 -9.280780792236328 119.2818908691406 C -11.78581428527832 113.810661315918 -13.95461463928223 107.3474960327148 -15.72691440582275 100.0719604492188 C -17.43454742431641 93.06195831298828 -18.7564811706543 85.37682342529297 -19.65601539611816 77.23002624511719 C -20.53854751586914 69.23696136474609 -20.99954795837402 60.94182586669922 -21.02624702453613 52.5750617980957 C -21.05301475524902 44.18365859985352 -20.64224815368652 35.88872528076172 -19.80534744262695 27.9206600189209 C -18.94778060913086 19.75596046447754 -17.65608215332031 12.07142639160156 -15.96611499786377 5.080526828765869 C -14.20521450042725 -2.203906536102295 -12.02681446075439 -8.665940284729004 -9.491381645202637 -14.12613964080811 C -6.824881076812744 -19.86860656738281 -3.7650146484375 -24.49444007873535 -0.396747887134552 -27.87510681152344 C 2.337218761444092 -30.619140625 5.081918716430664 -32.58270645141602 7.994218826293945 -33.8780403137207 C 10.72025203704834 -35.09053802490234 13.51468563079834 -35.67993927001953 16.53718566894531 -35.67993927001953 C 26.32481956481934 -35.67993927001953 36.86641693115234 -29.36643981933594 49.07258605957031 -22.05600738525391 C 65.51448822021484 -12.208740234375 85.97698211669922 0.04652682319283485 111.7530822753906 0.04652682319283485 C 129.6965484619141 0.04652682319283485 143.6657257080078 -1.771206498146057 154.8901214599609 -3.231773138046265 C 162.8120574951172 -4.262606620788574 169.6536865234375 -5.152873039245605 175.8314819335938 -5.152873039245605 C 179.0537567138672 -5.152873039245605 181.9314117431641 -4.912006378173828 184.6289520263672 -4.416539669036865 C 187.5566253662109 -3.878773212432861 190.2834167480469 -3.042206525802612 192.9651794433594 -1.859006524085999 C 195.7885894775391 -0.6132732033729553 198.5201263427734 0.9964268207550049 201.3158874511719 3.062093496322632 C 204.2003784179688 5.193326950073242 207.0856781005859 7.759126663208008 210.1366119384766 10.90612697601318 C 216.8013153076172 17.78062629699707 221.9858245849609 25.75482749938965 225.5460510253906 34.60726165771484 C 227.2646484375 38.88045883178711 228.5857543945313 43.33956146240234 229.4726867675781 47.86066055297852 C 230.354248046875 52.3543586730957 230.8146209716797 56.94819259643555 230.8410186767578 61.51456069946289 C 230.8674926757813 66.09645843505859 230.4571533203125 70.68985748291016 229.6214447021484 75.16719055175781 C 228.775146484375 79.70136260986328 227.4843902587891 84.15932464599609 225.7849884033203 88.41728973388672 C 222.2380828857422 97.30426025390625 216.9750518798828 105.2762298583984 210.1419830322266 112.1117248535156 C 205.6186218261719 116.6367568969727 201.2479248046875 119.8092575073242 196.7800903320313 121.8105239868164 C 192.72265625 123.6279907226563 188.4778137207031 124.5115585327148 183.8030548095703 124.5117568969727 C 176.5080261230469 124.5120620727539 168.6633911132813 122.3854598999023 159.5800170898438 119.9230270385742 C 146.5018157958984 116.3775939941406 130.2255554199219 111.9652252197266 108.3482818603516 111.9652252197266 C 83.08381652832031 111.9652252197266 63.54705047607422 122.2531585693359 47.84898376464844 130.5196228027344 C 36.53115081787109 136.4795227050781 26.7567195892334 141.6266632080078 17.69925117492676 141.6266632080078 Z"/>
    <path class="cls-3" d="M 16.53718566894531 -35.17997741699219 C 13.58612060546875 -35.17997741699219 10.858154296875 -34.60467529296875 8.197418212890625 -33.42123413085938 C 5.342453002929688 -32.15141296386719 2.647125244140625 -30.2218017578125 -0.04254150390625 -27.52224731445313 C -3.369552612304688 -24.18296813964844 -6.396011352539063 -19.60504150390625 -9.037887573242188 -13.91557312011719 C -11.5594482421875 -8.485206604003906 -13.72694396972656 -2.054473876953125 -15.48011779785156 5.197990417480469 C -17.16488647460938 12.16749572753906 -18.45281982421875 19.83009338378906 -19.30807495117188 27.97289276123047 C -20.14311218261719 35.92312622070313 -20.552978515625 44.19995880126953 -20.5262451171875 52.57345962524414 C -20.49961853027344 60.92249298095703 -20.03961181640625 69.19969177246094 -19.15901184082031 77.17512512207031 C -18.2618408203125 85.3006591796875 -16.94367980957031 92.96442413330078 -15.24114990234375 99.95359039306641 C -13.476318359375 107.198356628418 -11.31800842285156 113.6312942504883 -8.826187133789063 119.07373046875 C -6.221588134765625 124.7624282836914 -3.262710571289063 129.3424224853516 -0.0317840576171875 132.6864929199219 C 2.860183715820313 135.6796875 5.748992919921875 137.8125 8.799652099609375 139.2067260742188 C 11.62644958496094 140.4986267089844 14.53755187988281 141.1266632080078 17.69924926757813 141.1266632080078 C 26.63314819335938 141.1266632080078 36.35688781738281 136.0061950683594 47.61601257324219 130.0772247314453 C 63.36282348632813 121.7850952148438 82.96022033691406 111.4652252197266 108.3482818603516 111.4652252197266 C 130.2928466796875 111.4652252197266 146.6050567626953 115.8872909545898 159.712158203125 119.4404602050781 C 168.7605133056641 121.8933563232422 176.574951171875 124.0117645263672 183.8030548095703 124.0117645263672 C 188.4057922363281 124.0117645263672 192.5837249755859 123.1425247192383 196.5756530761719 121.354362487793 C 200.98681640625 119.3784255981445 205.3087158203125 116.2395248413086 209.7883453369141 111.7582626342773 C 216.5731811523438 104.9709625244141 221.7989807128906 97.05559539794922 225.3205871582031 88.23196411132813 C 227.0079498291016 84.00415802001953 228.2895812988281 79.57765960693359 229.1299438476563 75.07546234130859 C 229.9598236083984 70.62925720214844 230.3672790527344 66.06768798828125 230.3410186767578 61.51745986938477 C 230.3148193359375 56.98236083984375 229.8575897216797 52.41992568969727 228.9820556640625 47.95692825317383 C 228.1011505126953 43.46662521362305 226.7890167236328 39.03789520263672 225.0821533203125 34.7938232421875 C 221.5461883544922 26.00179290771484 216.3969879150391 18.08189392089844 209.7776184082031 11.25415802001953 C 206.7459564208984 8.127059936523438 203.8808898925781 5.578956604003906 201.0187225341797 3.464195251464844 C 198.2529602050781 1.420623779296875 195.5525817871094 -0.1709747314453125 192.7633209228516 -1.40167236328125 C 190.1177215576172 -2.568939208984375 187.4273834228516 -3.394309997558594 184.5386199951172 -3.924903869628906 C 181.8711853027344 -4.414840698242188 179.0230865478516 -4.652976989746094 175.8315124511719 -4.652870178222656 C 169.6864471435547 -4.6527099609375 162.8602142333984 -3.764472961425781 154.9560852050781 -2.735969543457031 C 143.717041015625 -1.273536682128906 129.7296752929688 0.5465240478515625 111.7530822753906 0.5465240478515625 C 85.83872222900391 0.5465240478515625 65.3104248046875 -11.74813842773438 48.81565856933594 -21.6270751953125 C 36.67315673828125 -28.89936828613281 26.1865234375 -35.17997741699219 16.53718566894531 -35.17997741699219 M 16.53717041015625 -36.17996215820313 C 40.08192443847656 -36.17996215820313 67.42950439453125 -0.4534759521484375 111.7530822753906 -0.4534759521484375 C 142.2471313476563 -0.4534759521484375 160.7814483642578 -5.652473449707031 175.8314819335938 -5.652877807617188 C 188.1700744628906 -5.653205871582031 198.1661987304688 -2.159385681152344 210.4955902099609 10.55809020996094 C 237.8638458251953 38.78779602050781 238.7150573730469 84.23555755615234 210.4955902099609 112.4652252197266 C 201.0896911621094 121.8745498657227 192.7693328857422 125.0117645263672 183.8030548095703 125.0117645263672 C 165.8688354492188 125.0117645263672 145.3455810546875 112.4652252197266 108.3482818603516 112.4652252197266 C 65.23728942871094 112.4652252197266 39.72500610351563 142.1266479492188 17.69924926757813 142.1266479492188 C 11.37255859375 142.1266479492188 5.335281372070313 139.6806335449219 -0.750946044921875 133.3813323974609 C -28.02574157714844 105.1516571044922 -28.876953125 0.0016632080078125 -0.750946044921875 -28.22804260253906 C 4.91064453125 -33.91050720214844 10.60331726074219 -36.17996215820313 16.53717041015625 -36.17996215820313 Z"/>
  </g>
</svg>
