<svg xmlns="http://www.w3.org/2000/svg" width="263.6" height="171.774" viewBox="0 0 263.6 171.774">
  <defs>
    <style>
      .cls-1 {
        fill: #fff;
      }

      .cls-2, .cls-3 {
        stroke: none;
      }

      .cls-3 {
        fill: #707070;
      }
    </style>
  </defs>
  <g id="Path_212" data-name="Path 212" class="cls-1" transform="translate(21.527 33.255)">
    <path class="cls-2" d="M 200.4907989501953 138.0182952880859 C 190.8730010986328 138.0182952880859 180.4948272705078 133.3642425537109 168.4772186279297 127.9750900268555 C 151.7429046630859 120.4708023071289 132.7758331298828 111.9652328491211 108.3482894897461 111.9652328491211 C 86.96761322021484 111.9652328491211 70.23532867431641 116.0627975463867 55.47272109985352 119.6780166625977 C 44.88139724731445 122.271728515625 35.73439788818359 124.5117645263672 27.32414817810059 124.5117645263672 C 22.08168411254883 124.5117645263672 17.44261360168457 123.627082824707 13.1418628692627 121.8071594238281 C 8.393399238586426 119.7977981567383 3.966648817062378 116.6283721923828 -0.3913511633872986 112.1177978515625 C -3.704886913299561 108.688232421875 -6.704422473907471 104.7488327026367 -9.306565284729004 100.4089813232422 C -11.82792282104492 96.20391082763672 -13.99310111999512 91.59605407714844 -15.74199390411377 86.71347808837891 C -17.45317268371582 81.93611907958984 -18.77145767211914 76.88166046142578 -19.66013717651367 71.69044494628906 C -20.54013633728027 66.54998016357422 -20.9997444152832 61.27208709716797 -21.02624320983887 56.00337219238281 C -21.05281639099121 50.71737289428711 -20.64328002929688 45.43980026245117 -19.80910110473633 40.31729888916016 C -18.96142196655273 35.1121940612793 -17.67345809936523 30.05865859985352 -15.98099422454834 25.29712295532227 C -14.24220848083496 20.40533638000488 -12.06763648986816 15.79880046844482 -9.517637252807617 11.60544395446777 C -6.875529766082764 7.260550975799561 -3.806779623031616 3.322050809860229 -0.3967083096504211 -0.1005920767784119 C 4.093041896820068 -4.606913566589355 8.698363304138184 -7.776877880096436 13.68236351013184 -9.791699409484863 C 18.19050598144531 -11.61409187316895 23.06525611877441 -12.50002098083496 28.58518409729004 -12.50002098083496 C 37.55168533325195 -12.50002098083496 47.24071884155273 -10.2082347869873 58.45968627929688 -7.554556369781494 C 73.52246856689453 -3.99169921875 90.59503936767578 0.04651506617665291 111.7530746459961 0.04651506617665291 C 137.4090423583984 0.04651506617665291 157.2138977050781 -11.33005619049072 173.1273651123047 -20.47130584716797 C 184.6020050048828 -27.06273460388184 194.5118560791016 -32.75530624389648 203.7080078125 -32.75530624389648 C 206.762939453125 -32.75530624389648 209.5858306884766 -32.14198303222656 212.3380737304688 -30.88030624389648 C 215.2864685058594 -29.52869987487793 218.0763244628906 -27.47237777709961 220.8670043945313 -24.59384155273438 C 224.1530456542969 -21.20441436767578 227.1550750732422 -16.68323516845703 229.789794921875 -11.15594959259033 C 232.3046112060547 -5.880092144012451 234.4801788330078 0.2984793484210968 236.2560729980469 7.208193778991699 C 237.9697875976563 13.87590789794922 239.2957611083984 21.15815734863281 240.1971435546875 28.85269355773926 C 241.0823669433594 36.40908813476563 241.5447235107422 44.24240875244141 241.5713958740234 52.13501358032227 C 241.6260070800781 68.29051208496094 239.8706817626953 83.82508850097656 236.4952545166016 97.05933380126953 C 234.7306518554688 103.9778366088867 232.5455017089844 110.1552658081055 230.0004272460938 115.4201202392578 C 227.3273315429688 120.9497985839844 224.2562255859375 125.4699783325195 220.8724060058594 128.8550109863281 C 217.6248626708984 132.1037292480469 214.3408203125 134.418701171875 210.8326110839844 135.9321899414063 C 207.5801086425781 137.3354034423828 204.1986846923828 138.0177612304688 200.4951171875 138.0182952880859 C 200.4939422607422 138.0182952880859 200.4919738769531 138.0182952880859 200.4907989501953 138.0182952880859 Z"/>
    <path class="cls-3" d="M 203.7119598388672 -33.25534057617188 L 203.7081756591797 -32.25534057617188 C 194.6461334228516 -32.25373840332031 184.7909240722656 -26.5927734375 173.3795318603516 -20.03787994384766 C 157.4138488769531 -10.86698150634766 137.5440673828125 0.5465164184570313 111.753059387207 0.5465164184570313 C 90.53669738769531 0.5465164184570313 73.43399047851563 -3.49884033203125 58.3446044921875 -7.067985534667969 C 47.15609741210938 -9.714447021484375 37.49334716796875 -12.00002288818359 28.58517456054688 -12.00002288818359 C 23.13070678710938 -12.00002288818359 18.31724548339844 -11.12605285644531 13.86978149414063 -9.328125 C 8.949447631835938 -7.339088439941406 4.398712158203125 -4.205307006835938 -0.04254150390625 0.2523345947265625 C -3.4246826171875 3.646942138671875 -6.4688720703125 7.554084777832031 -9.090438842773438 11.86522674560547 C -11.62272644042969 16.02944183349609 -13.78251647949219 20.60494232177734 -15.50987243652344 25.46458435058594 C -17.19233703613281 30.19790649414063 -18.47276306152344 35.22212219238281 -19.31561279296875 40.3976936340332 C -20.14537048339844 45.49287033081055 -20.55268859863281 50.74251556396484 -20.52626037597656 56.00083541870117 C -20.49990844726563 61.24219512939453 -20.04269409179688 66.4925537109375 -19.16732788085938 71.60604858398438 C -18.28350830078125 76.76869201660156 -16.97271728515625 81.79483795166016 -15.27130126953125 86.54487609863281 C -13.53340148925781 91.396728515625 -11.38232421875 95.97476196289063 -8.877761840820313 100.1518707275391 C -6.295150756835938 104.4591217041016 -3.318939208984375 108.3681564331055 -0.0317535400390625 111.7703704833984 C 4.278564453125 116.2316207885742 8.651412963867188 119.3640518188477 13.33670043945313 121.3466949462891 C 17.57460021972656 123.1400146484375 22.14991760253906 124.0117645263672 27.32412719726563 124.0117645263672 C 35.67405700683594 124.0117645263672 44.79391479492188 121.7784118652344 55.35380554199219 119.1923751831055 C 70.14389038085938 115.570442199707 86.90731811523438 111.4652328491211 108.3483123779297 111.4652328491211 C 132.8844604492188 111.4652328491211 151.9043121337891 119.9940872192383 168.6851654052734 127.5189437866211 C 180.6505279541016 132.8844451904297 190.9842071533203 137.5182647705078 200.4951324462891 137.5182647705078 C 204.1288452148438 137.5182647705078 207.4454498291016 136.8494110107422 210.6344909667969 135.4734802246094 C 214.0833435058594 133.9854431152344 217.3165283203125 131.7049102783203 220.5187377929688 128.5015106201172 C 223.8629150390625 125.156120300293 226.9015655517578 120.6816558837891 229.5502471923828 115.2024459838867 C 232.0807800292969 109.9676971435547 234.2544250488281 103.8218688964844 236.0107421875 96.93572998046875 C 239.3758850097656 83.74183654785156 241.1258544921875 68.25054931640625 241.0713806152344 52.13665771484375 C 241.0447692871094 44.26283645629883 240.5835266113281 36.44854736328125 239.7005310058594 28.91083526611328 C 238.8017425537109 21.23858642578125 237.4799194335938 13.97862243652344 235.7718200683594 7.332618713378906 C 234.0039215087891 0.4540481567382813 231.8394165039063 -5.694023132324219 229.3384246826172 -10.94084167480469 C 226.7271270751953 -16.41902160644531 223.7561645507813 -20.89548492431641 220.5080261230469 -24.245849609375 C 217.7615203857422 -27.07881164550781 215.0215301513672 -29.10015869140625 212.1315307617188 -30.42549133300781 C 209.4464569091797 -31.65679931640625 206.6923828125 -32.25534057617188 203.7119598388672 -32.25534057617188 L 203.7119598388672 -33.25534057617188 M 203.7080078125 -33.25532531738281 C 209.7011260986328 -33.25636291503906 215.4446563720703 -30.90522766113281 221.2259979248047 -24.94190979003906 C 248.59423828125 3.287765502929688 249.4454193115234 100.9787979125977 221.2259979248047 129.2084808349609 C 214.486328125 135.9505920410156 207.6883850097656 138.5182647705078 200.4951477050781 138.5182647705078 C 177.5697631835938 138.5182647705078 150.5888061523438 112.4652252197266 108.3483123779297 112.4652252197266 C 71.35440063476563 112.4652252197266 47.31704711914063 125.0117492675781 27.32412719726563 125.0117492675781 C 17.32583618164063 125.0117492675781 8.341766357421875 121.8762664794922 -0.7509307861328125 112.4652252197266 C -28.0257568359375 84.23554992675781 -28.87693786621094 27.77619171142578 -0.7509307861328125 -0.4534835815429688 C 8.623825073242188 -9.862800598144531 18.08470153808594 -13.00000762939453 28.58515930175781 -13.00000762939453 C 49.5880126953125 -13.00000762939453 74.75578308105469 -0.4534835815429688 111.753059387207 -0.4534835815429688 C 155.5245666503906 -0.4534835815429688 181.3303375244141 -33.25143432617188 203.7080078125 -33.25532531738281 Z"/>
  </g>
</svg>
