<svg id="Offer_splash" data-name="Offer splash" xmlns="http://www.w3.org/2000/svg" width="325.878" height="262.882" viewBox="0 0 325.878 262.882">
  <defs>
    <style>
      .cls-1 {
        fill: #fe8d01;
      }

      .cls-2, .cls-3 {
        fill: #fff;
      }

      .cls-2 {
        font-size: 32px;
        font-family: Raleway-Bold, Raleway;
        font-weight: 700;
      }

      .cls-3 {
        font-size: 24px;
        font-family: Raleway;
      }
    </style>
  </defs>
  <path id="Path_41" data-name="Path 41" class="cls-1" d="M540.817,2170.136c13.886,1.984,45.792,40.736,113.314,44.639,70.244,4.06,150.285-40.3,156.236-30.9,9.717,15.339-78.977,144.218-78.977,144.218s18.154,104.73-10.3,104.73c-9.543,0-51.458-50.518-109.88-75.543-52.591-22.527-106.784,19.756-113.314,18.885-38.109-5.081,21.373-75.713,27.47-113.314S512.362,2166.071,540.817,2170.136Z" transform="translate(-485.233 -2169.937)"/>
  <text id="Offer" class="cls-2" transform="translate(125 85.063)"><tspan x="0" y="0">Offer</tspan></text>
  <text id="_30_off_on_men_s_shirts" data-name="30% off on 
men&apos;s shirts" class="cls-3" transform="translate(75 131.063)"><tspan x="0" y="0">30% off on </tspan><tspan x="0" y="32">men&apos;s shirts</tspan></text>
</svg>
