<svg xmlns="http://www.w3.org/2000/svg" width="1527.241" height="476.379" viewBox="0 0 1527.241 476.379">
  <defs>
    <style>
      .cls-1 {
        fill: rgba(254,141,1,0.6);
      }
    </style>
  </defs>
  <path id="Path_210" data-name="Path 210" class="cls-1" d="M314.6,2739.6c-56.725,19.609-140.923,163.466-140.923,244.7s139.89-44.82,218.324,0-193.113,190.282,232.674,200.492,382.783-6.1,579.853-22.208,320.741,43.918,434.191,50.221,39.216-137.059,28.011-260.312c-4.325-47.576-2.8-143.064-196.085-196.287-98.532-20.614-156.159,100.343-254.912,101.046-4.39.031,4.883.235,0,0-174.376-8.4-72.832-92.44-193.285-117.651S638.627,2857.249,577,2876.858,371.324,2719.989,314.6,2739.6Z" transform="translate(-173.676 -2736.625)"/>
</svg>
