<svg xmlns="http://www.w3.org/2000/svg" width="273.351" height="601.008" viewBox="0 0 273.351 601.008">
  <defs>
    <style>
      .cls-1 {
        fill: rgba(254,141,1,0.6);
      }
    </style>
  </defs>
  <path id="Path_213" data-name="Path 213" class="cls-1" d="M417.647,4024.238c5.189-36.631,37.994-35.305,46.282-88.346s-82.333-80.061-57.056-121.914,57.475-86.192,123.536-86.192,98.656,44.339,123.519,86.192-55.28,68.873-55.28,121.914,27.846,29.918,23.7,88.346-6.869,75.418-10.774,129.288,62.2,142.63,42.351,152.99S618.524,4290.933,577,4283.06s-48.75-10.774-95,0-63.151,57.185-90,43.1,36.421-122.49,36.421-172.63S412.459,4060.87,417.647,4024.238Z" transform="translate(-385.362 -3727.787)"/>
</svg>
